<?xml version="1.0" encoding="utf-8"?>
<!-- Generator: Adobe Illustrator 22.1.0, SVG Export Plug-In . SVG Version: 6.00 Build 0)  -->
<svg version="1.1" id="Capa_1" xmlns="http://www.w3.org/2000/svg" xmlns:xlink="http://www.w3.org/1999/xlink" x="0px" y="0px"
	 viewBox="0 0 425.2 425.2" style="enable-background:new 0 0 425.2 425.2;" xml:space="preserve">
<style type="text/css">
	.st0{fill:#C61D40;}
	.st1{fill:#FFFFFF;}
</style>
<rect x="-16.2" y="-22.4" class="st0" width="457.5" height="470"/>
<g>
	<g>
		<path class="st1" d="M76.3,243.8v-63.6h29.5c13.5,0,27.1,5.1,27.1,22.5c0,9.9-4.5,15.8-10.9,19l16.4,22.2h-23.1l-13.1-18.8h-4.9
			v18.8H76.3z M97.3,209.2h8.1c4.1,0,6.5-2.5,6.5-6s-2.4-6-6.5-6h-8.1V209.2z"/>
		<path class="st1" d="M190.8,180.1v16.5h-27.2v7.4h23.9v15.5h-23.9v7.5h27.7v16.7h-48.7v-63.6H190.8z"/>
		<path class="st1" d="M222.4,178.7c8.3,0,17.1,1.9,23.4,5.3v18.2c-10-6.3-26.7-8.4-26.7-3.3c0,6.6,30.9,3.6,30.9,25.7
			c0,27.1-37.8,22.6-52,14.6v-19c12.9,8.4,30.4,9.6,30.4,4.4c0-6.5-30.9-4-30.9-26.2C197.4,185,208.6,178.7,222.4,178.7z"/>
		<path class="st1" d="M303.5,184v18.2c-10-6.3-26.7-8.4-26.7-3.3c0,6.6,30.9,3.6,30.9,25.7c0,27.1-37.8,22.6-52,14.6v-19
			c12.9,8.4,30.4,9.6,30.4,4.4c0-6.5-30.9-4-30.9-26.2C255.1,175.2,287.7,175.5,303.5,184z"/>
		<path class="st1" d="M362.8,180.1v16.5h-27.2v7.4h23.9v15.5h-23.9v7.5h27.7v16.7h-48.7v-63.6H362.8z"/>
		<path class="st1" d="M392.1,180.1v63.6h-21v-63.6H392.1z"/>
	</g>
	<g>
		<path class="st1" d="M191.4,155.3v-38.7H45.5c0,0,0,183.3,0,183.3h145.9v-25h-14.6v10.4H60.1V131.3h116.6v24H191.4z"/>
	</g>
</g>
</svg>
