<?xml version="1.0" encoding="utf-8"?>
<!-- Generator: Adobe Illustrator 22.1.0, SVG Export Plug-In . SVG Version: 6.00 Build 0)  -->
<svg version="1.1" id="Capa_1" xmlns="http://www.w3.org/2000/svg" xmlns:xlink="http://www.w3.org/1999/xlink" x="0px" y="0px"
	 viewBox="0 0 265 170.1" style="enable-background:new 0 0 265 170.1;" xml:space="preserve">
<style type="text/css">
	.st0{fill:#C61D40;}
	.st1{fill:#FFFFFF;}
</style>
<g>
	<g>
		<path class="st0" d="M62.6,92.8V61.6h14.5c6.6,0,13.3,2.5,13.3,11c0,4.9-2.2,7.8-5.4,9.3l8,10.9H81.7l-6.4-9.2h-2.4v9.2H62.6z
			 M72.9,75.9h4c2,0,3.2-1.2,3.2-2.9c0-1.7-1.2-2.9-3.2-2.9h-4V75.9z"/>
		<path class="st0" d="M118.7,61.6v8.1h-13.3v3.6h11.7v7.6h-11.7v3.7H119v8.2H95.1V61.6H118.7z"/>
		<path class="st0" d="M134.2,60.9c4.1,0,8.4,0.9,11.5,2.6v8.9c-4.9-3.1-13.1-4.1-13.1-1.6c0,3.3,15.2,1.8,15.2,12.6
			c0,13.3-18.6,11.1-25.5,7.2v-9.3c6.3,4.1,14.9,4.7,14.9,2.1c0-3.2-15.2-2-15.2-12.8C122,64,127.5,60.9,134.2,60.9z"/>
		<path class="st0" d="M174,63.5v8.9c-4.9-3.1-13.1-4.1-13.1-1.6c0,3.3,15.2,1.8,15.2,12.6c0,13.3-18.6,11.1-25.5,7.2v-9.3
			c6.3,4.1,14.9,4.7,14.9,2.1c0-3.2-15.2-2-15.2-12.8C150.3,59.2,166.3,59.3,174,63.5z"/>
		<path class="st0" d="M203.1,61.6v8.1h-13.3v3.6h11.7v7.6h-11.7v3.7h13.6v8.2h-23.9V61.6H203.1z"/>
		<path class="st0" d="M217.5,61.6v31.2h-10.3V61.6H217.5z"/>
	</g>
	<g>
		<path class="st1" d="M65.7,107.1l-1.2-2.3h-0.9v2.3h-1v-5.8h2c1.2,0,2.1,0.4,2.1,1.7c0,0.9-0.5,1.4-1.1,1.7l1.4,2.4
			C67,107.1,65.7,107.1,65.7,107.1z M63.6,104h0.8c0.8,0,1.2-0.3,1.2-1s-0.4-0.9-1.2-0.9h-0.8C63.6,102.1,63.6,104,63.6,104z"/>
		<path class="st1" d="M67.9,101.3h3.5v0.9h-2.5v1.5H71v0.9h-2.1v1.7h2.5v0.9h-3.6L67.9,101.3L67.9,101.3z"/>
		<path class="st1" d="M72.7,101.3h3.5v0.9h-2.5v1.6h2.1v0.9h-2.1v2.4h-1V101.3z"/>
		<path class="st1" d="M79.7,105.5h-1.9l-0.5,1.6h-1l1.9-5.8h1.2l1.9,5.8h-1.1L79.7,105.5z M79.5,104.7l-0.2-0.7
			c-0.2-0.6-0.4-1.3-0.5-1.9l0,0c-0.2,0.6-0.3,1.3-0.5,1.9l-0.2,0.7H79.5z"/>
		<path class="st1" d="M81.6,104.2c0-1.9,1.2-3,2.6-3c0.7,0,1.3,0.3,1.7,0.7l-0.5,0.7c-0.3-0.3-0.6-0.5-1.1-0.5
			c-0.9,0-1.6,0.8-1.6,2.1c0,1.3,0.6,2.1,1.6,2.1c0.5,0,0.9-0.2,1.2-0.6l0.5,0.6c-0.5,0.5-1.1,0.8-1.8,0.8
			C82.8,107.2,81.6,106.1,81.6,104.2z"/>
		<path class="st1" d="M86.5,104.2c0-1.9,1.2-3,2.6-3c0.7,0,1.3,0.3,1.7,0.7l-0.5,0.7c-0.3-0.3-0.6-0.5-1.1-0.5
			c-0.9,0-1.6,0.8-1.6,2.1c0,1.3,0.6,2.1,1.6,2.1c0.5,0,0.9-0.2,1.2-0.6l0.5,0.6c-0.5,0.5-1.1,0.8-1.8,0.8
			C87.7,107.2,86.5,106.1,86.5,104.2z"/>
		<path class="st1" d="M92,101.3h1v5.8h-1V101.3z"/>
		<path class="st1" d="M94.3,104.1c0-1.9,1-3,2.5-3s2.6,1.1,2.6,3s-1,3-2.6,3C95.3,107.2,94.3,106,94.3,104.1z M98.3,104.1
			c0-1.3-0.6-2.1-1.5-2.1s-1.5,0.8-1.5,2.1c0,1.3,0.6,2.1,1.5,2.1C97.8,106.3,98.3,105.4,98.3,104.1z"/>
		<path class="st1" d="M100.6,101.3h1.1l1.8,3.3l0.6,1.2l0,0c0-0.6-0.1-1.3-0.1-2v-2.5h1v5.8h-1.1l-1.8-3.3l-0.6-1.2l0,0
			c0,0.6,0.1,1.3,0.1,2v2.5h-1V101.3z"/>
		<path class="st1" d="M106.5,101.3h3.5v0.9h-2.5v1.5h2.1v0.9h-2.1v1.7h2.5v0.9h-3.6L106.5,101.3L106.5,101.3z"/>
		<path class="st1" d="M111,106.3l0.6-0.7c0.4,0.4,1,0.7,1.5,0.7c0.7,0,1-0.3,1-0.7c0-0.5-0.4-0.6-0.9-0.8l-0.8-0.3
			c-0.6-0.2-1.2-0.7-1.2-1.5c0-0.9,0.8-1.6,1.9-1.6c0.7,0,1.3,0.3,1.8,0.7l-0.5,0.7c-0.4-0.3-0.8-0.5-1.3-0.5s-0.9,0.3-0.9,0.7
			c0,0.5,0.4,0.6,0.9,0.8l0.8,0.3c0.7,0.3,1.2,0.7,1.2,1.6s-0.8,1.7-2.1,1.7C112.3,107.2,111.5,106.8,111,106.3z"/>
		<path class="st1" d="M118.1,101.3h3.5v0.9h-2.5v1.5h2.1v0.9h-2.1v1.7h2.5v0.9H118L118.1,101.3L118.1,101.3z"/>
		<path class="st1" d="M122.6,106.3l0.6-0.7c0.4,0.4,1,0.7,1.5,0.7c0.7,0,1-0.3,1-0.7c0-0.5-0.4-0.6-0.9-0.8l-0.8-0.3
			c-0.6-0.2-1.2-0.7-1.2-1.5c0-0.9,0.8-1.6,1.9-1.6c0.7,0,1.3,0.3,1.8,0.7l-0.5,0.7c-0.4-0.3-0.8-0.5-1.3-0.5s-0.9,0.3-0.9,0.7
			c0,0.5,0.4,0.6,0.9,0.8l0.8,0.3c0.7,0.3,1.2,0.7,1.2,1.6s-0.8,1.7-2.1,1.7C123.9,107.2,123.1,106.8,122.6,106.3z"/>
		<path class="st1" d="M127.9,101.3h1.8c1.3,0,2.2,0.4,2.2,1.8c0,1.3-1,1.9-2.2,1.9h-0.8v2.1h-1
			C127.9,107.1,127.9,101.3,127.9,101.3z M129.7,104.1c0.9,0,1.3-0.3,1.3-1.1c0-0.7-0.5-1-1.3-1H129v2L129.7,104.1L129.7,104.1z"/>
		<path class="st1" d="M133.1,101.3h3.5v0.9h-2.5v1.5h2.1v0.9h-2.1v1.7h2.5v0.9H133v-5.9H133.1z"/>
		<path class="st1" d="M137.7,104.2c0-1.9,1.2-3,2.6-3c0.7,0,1.3,0.3,1.7,0.7l-0.5,0.7c-0.3-0.3-0.6-0.5-1.1-0.5
			c-0.9,0-1.6,0.8-1.6,2.1c0,1.3,0.6,2.1,1.6,2.1c0.5,0,0.9-0.2,1.2-0.6l0.5,0.6c-0.5,0.5-1.1,0.8-1.8,0.8
			C138.8,107.2,137.7,106.1,137.7,104.2z"/>
		<path class="st1" d="M143.2,101.3h1v5.8h-1V101.3z"/>
		<path class="st1" d="M148.4,105.5h-1.9l-0.5,1.6h-1l1.9-5.8h1.2l1.9,5.8h-1.1L148.4,105.5z M148.2,104.7L148,104
			c-0.2-0.6-0.4-1.3-0.5-1.9l0,0c-0.2,0.6-0.3,1.3-0.5,1.9l-0.2,0.7H148.2z"/>
		<path class="st1" d="M150.8,101.3h1v4.9h2.4v0.9h-3.4V101.3z"/>
		<path class="st1" d="M155.3,101.3h3.5v0.9h-2.5v1.5h2.1v0.9h-2.1v1.7h2.5v0.9h-3.6v-5.9H155.3z"/>
		<path class="st1" d="M159.7,106.3l0.6-0.7c0.4,0.4,1,0.7,1.5,0.7c0.7,0,1-0.3,1-0.7c0-0.5-0.4-0.6-0.9-0.8l-0.8-0.3
			c-0.6-0.2-1.2-0.7-1.2-1.5c0-0.9,0.8-1.6,1.9-1.6c0.7,0,1.3,0.3,1.8,0.7l-0.5,0.7c-0.4-0.3-0.8-0.5-1.3-0.5s-0.9,0.3-0.9,0.7
			c0,0.5,0.4,0.6,0.9,0.8l0.8,0.3c0.7,0.3,1.2,0.7,1.2,1.6s-0.8,1.7-2.1,1.7C161,107.2,160.3,106.8,159.7,106.3z"/>
		<path class="st1" d="M62.6,111.9h3.5v0.9h-2.5v1.5h2.1v0.9h-2.1v1.7h2.5v0.9h-3.6L62.6,111.9L62.6,111.9z"/>
		<path class="st1" d="M67.4,111.9h1.1l1.8,3.3l0.6,1.2l0,0c0-0.6-0.1-1.3-0.1-2v-2.5h1v5.8h-1.1l-1.8-3.3l-0.6-1.2l0,0
			c0,0.6,0.1,1.3,0.1,2v2.5h-1V111.9z"/>
		<path class="st1" d="M74.8,116.9l0.6-0.7c0.4,0.4,1,0.7,1.5,0.7c0.7,0,1-0.3,1-0.7c0-0.5-0.4-0.6-0.9-0.8l-0.8-0.3
			c-0.6-0.2-1.2-0.7-1.2-1.5c0-0.9,0.8-1.6,1.9-1.6c0.7,0,1.3,0.3,1.8,0.7l-0.5,0.7c-0.4-0.3-0.8-0.5-1.3-0.5s-0.9,0.3-0.9,0.7
			c0,0.5,0.4,0.6,0.9,0.8l0.8,0.3c0.7,0.3,1.2,0.7,1.2,1.6s-0.8,1.7-2.1,1.7C76.1,117.8,75.3,117.5,74.8,116.9z"/>
		<path class="st1" d="M80.1,111.9h3.5v0.9h-2.5v1.5h2.1v0.9h-2.1v1.7h2.5v0.9H80L80.1,111.9L80.1,111.9z"/>
		<path class="st1" d="M84.9,111.9h1v4.9h2.4v0.9h-3.4V111.9z"/>
		<path class="st1" d="M89.5,111.9h1v4.9h2.4v0.9h-3.4V111.9z"/>
		<path class="st1" d="M96.7,116.1h-1.9l-0.5,1.6h-1l1.9-5.8h1.2l1.9,5.8h-1.1L96.7,116.1z M96.4,115.3l-0.2-0.7
			c-0.2-0.6-0.4-1.3-0.5-1.9l0,0c-0.2,0.6-0.3,1.3-0.5,1.9l-0.2,0.7H96.4z"/>
		<path class="st1" d="M99,111.9h1.5c1.8,0,2.8,1,2.8,2.9s-1,2.9-2.8,2.9H99V111.9z M100.5,116.8c1.2,0,1.8-0.7,1.8-2.1
			s-0.7-2-1.8-2H100v4.1H100.5z"/>
		<path class="st1" d="M104.3,114.7c0-1.9,1-3,2.5-3s2.6,1.1,2.6,3s-1,3-2.6,3C105.4,117.8,104.3,116.6,104.3,114.7z M108.4,114.7
			c0-1.3-0.6-2.1-1.5-2.1s-1.5,0.8-1.5,2.1c0,1.3,0.6,2.1,1.5,2.1C107.8,116.9,108.4,116,108.4,114.7z"/>
		<path class="st1" d="M113.5,115.5l-1.7-3.6h1.1l0.6,1.5c0.2,0.4,0.3,0.8,0.5,1.3l0,0c0.2-0.4,0.4-0.8,0.5-1.3l0.6-1.5h1.1
			l-1.7,3.6v2.1h-1V115.5z"/>
		<path class="st1" d="M118.5,116.9l0.6-0.7c0.4,0.4,1,0.7,1.5,0.7c0.7,0,1-0.3,1-0.7c0-0.5-0.4-0.6-0.9-0.8l-0.8-0.3
			c-0.6-0.2-1.2-0.7-1.2-1.5c0-0.9,0.8-1.6,1.9-1.6c0.7,0,1.3,0.3,1.8,0.7l-0.5,0.7c-0.4-0.3-0.8-0.5-1.3-0.5s-0.9,0.3-0.9,0.7
			c0,0.5,0.4,0.6,0.9,0.8l0.8,0.3c0.7,0.3,1.2,0.7,1.2,1.6s-0.8,1.7-2.1,1.7C119.8,117.8,119,117.5,118.5,116.9z"/>
		<path class="st1" d="M123.8,111.9h3.5v0.9h-2.5v1.5h2.1v0.9h-2.1v1.7h2.5v0.9h-3.6L123.8,111.9L123.8,111.9z"/>
		<path class="st1" d="M131.8,117.7l-1.2-2.3h-0.9v2.3h-1v-5.8h2c1.2,0,2.1,0.4,2.1,1.7c0,0.9-0.5,1.4-1.1,1.7l1.4,2.4
			C133.1,117.7,131.8,117.7,131.8,117.7z M129.7,114.6h0.8c0.8,0,1.2-0.3,1.2-1s-0.4-0.9-1.2-0.9h-0.8V114.6z"/>
		<path class="st1" d="M133.2,111.9h1.1l0.8,2.9c0.2,0.7,0.3,1.2,0.5,1.9l0,0c0.2-0.7,0.3-1.2,0.5-1.9l0.8-2.9h1.1l-1.8,5.8H135
			L133.2,111.9z"/>
		<path class="st1" d="M138.8,111.9h1v5.8h-1V111.9z"/>
		<path class="st1" d="M141,114.8c0-1.9,1.2-3,2.6-3c0.7,0,1.3,0.3,1.7,0.7l-0.5,0.7c-0.3-0.3-0.6-0.5-1.1-0.5
			c-0.9,0-1.6,0.8-1.6,2.1c0,1.3,0.6,2.1,1.6,2.1c0.5,0,0.9-0.2,1.2-0.6l0.5,0.6c-0.5,0.5-1.1,0.8-1.8,0.8
			C142.2,117.8,141,116.7,141,114.8z"/>
		<path class="st1" d="M146.5,111.9h1v5.8h-1V111.9z"/>
		<path class="st1" d="M148.8,114.7c0-1.9,1-3,2.5-3s2.6,1.1,2.6,3s-1,3-2.6,3C149.8,117.8,148.8,116.6,148.8,114.7z M152.8,114.7
			c0-1.3-0.6-2.1-1.5-2.1s-1.5,0.8-1.5,2.1c0,1.3,0.6,2.1,1.5,2.1C152.3,116.9,152.8,116,152.8,114.7z"/>
		<path class="st1" d="M154.8,116.9l0.6-0.7c0.4,0.4,1,0.7,1.5,0.7c0.7,0,1-0.3,1-0.7c0-0.5-0.4-0.6-0.9-0.8l-0.8-0.3
			c-0.6-0.2-1.2-0.7-1.2-1.5c0-0.9,0.8-1.6,1.9-1.6c0.7,0,1.3,0.3,1.8,0.7l-0.5,0.7c-0.4-0.3-0.8-0.5-1.3-0.5s-0.9,0.3-0.9,0.7
			c0,0.5,0.4,0.6,0.9,0.8l0.8,0.3c0.7,0.3,1.2,0.7,1.2,1.6s-0.8,1.7-2.1,1.7C156.1,117.8,155.3,117.5,154.8,116.9z"/>
		<path class="st1" d="M161.9,111.9h1v5.8h-1V111.9z"/>
		<path class="st1" d="M164.5,111.9h1.1l1.8,3.3l0.6,1.2l0,0c0-0.6-0.1-1.3-0.1-2v-2.5h1v5.8h-1.1l-1.8-3.3l-0.6-1.2l0,0
			c0,0.6,0.1,1.3,0.1,2v2.5h-1V111.9z"/>
		<path class="st1" d="M170.4,111.9h1.5c1.8,0,2.8,1,2.8,2.9s-1,2.9-2.8,2.9h-1.6v-5.8H170.4z M171.9,116.8c1.2,0,1.8-0.7,1.8-2.1
			s-0.7-2-1.8-2h-0.5v4.1H171.9z"/>
		<path class="st1" d="M176,115.1v-3.2h1v3.3c0,1.3,0.5,1.7,1.2,1.7s1.2-0.4,1.2-1.7v-3.3h1v3.2c0,1.9-0.8,2.6-2.2,2.6
			C176.8,117.8,176,117,176,115.1z"/>
		<path class="st1" d="M181.4,116.9l0.6-0.7c0.4,0.4,1,0.7,1.5,0.7c0.7,0,1-0.3,1-0.7c0-0.5-0.4-0.6-0.9-0.8l-0.8-0.3
			c-0.6-0.2-1.2-0.7-1.2-1.5c0-0.9,0.8-1.6,1.9-1.6c0.7,0,1.3,0.3,1.8,0.7l-0.5,0.7c-0.4-0.3-0.8-0.5-1.3-0.5s-0.9,0.3-0.9,0.7
			c0,0.5,0.4,0.6,0.9,0.8l0.8,0.3c0.7,0.3,1.2,0.7,1.2,1.6s-0.8,1.7-2.1,1.7C182.7,117.8,181.9,117.5,181.4,116.9z"/>
		<path class="st1" d="M187.7,112.7H186v-0.9h4.4v0.9h-1.7v4.9h-1V112.7z"/>
		<path class="st1" d="M194.6,117.7l-1.2-2.3h-0.9v2.3h-1v-5.8h2c1.2,0,2.1,0.4,2.1,1.7c0,0.9-0.5,1.4-1.1,1.7l1.4,2.4
			C195.9,117.7,194.6,117.7,194.6,117.7z M192.5,114.6h0.8c0.8,0,1.2-0.3,1.2-1s-0.4-0.9-1.2-0.9h-0.8V114.6z"/>
		<path class="st1" d="M196.8,111.9h1v5.8h-1V111.9z"/>
		<path class="st1" d="M202,116.1h-1.9l-0.5,1.6h-1l1.9-5.8h1.2l1.9,5.8h-1.1L202,116.1z M201.8,115.3l-0.2-0.7
			c-0.2-0.6-0.4-1.3-0.5-1.9l0,0c-0.2,0.6-0.3,1.3-0.5,1.9l-0.2,0.7H201.8z"/>
		<path class="st1" d="M204.4,111.9h1v4.9h2.4v0.9h-3.4V111.9z"/>
		<path class="st1" d="M208.9,111.9h3.5v0.9h-2.5v1.5h2.1v0.9h-2.1v1.7h2.5v0.9h-3.6v-5.9H208.9z"/>
		<path class="st1" d="M213.3,116.9l0.6-0.7c0.4,0.4,1,0.7,1.5,0.7c0.7,0,1-0.3,1-0.7c0-0.5-0.4-0.6-0.9-0.8l-0.8-0.3
			c-0.6-0.2-1.2-0.7-1.2-1.5c0-0.9,0.8-1.6,1.9-1.6c0.7,0,1.3,0.3,1.8,0.7l-0.5,0.7c-0.4-0.3-0.8-0.5-1.3-0.5s-0.9,0.3-0.9,0.7
			c0,0.5,0.4,0.6,0.9,0.8l0.8,0.3c0.7,0.3,1.2,0.7,1.2,1.6s-0.8,1.7-2.1,1.7C214.7,117.8,213.9,117.5,213.3,116.9z"/>
	</g>
	<g>
		<polygon class="st0" points="119,49.4 119,30.5 47.5,30.5 47.5,139.7 119,139.7 119,127.4 111.8,127.4 111.8,132.5 54.6,132.5 
			54.6,37.6 111.8,37.6 111.8,49.4 		"/>
	</g>
</g>
</svg>
