<?xml version="1.0" encoding="utf-8"?>
<!-- Generator: Adobe Illustrator 22.1.0, SVG Export Plug-In . SVG Version: 6.00 Build 0)  -->
<svg version="1.1" id="Capa_1" xmlns="http://www.w3.org/2000/svg" xmlns:xlink="http://www.w3.org/1999/xlink" x="0px" y="0px"
	 viewBox="0 0 299.9 178.6" style="enable-background:new 0 0 299.9 178.6;" xml:space="preserve">
<style type="text/css">
	.st0{fill:#C61D40;}
</style>
<g>
	<path class="st0" d="M41,116.4V67.8h22.6c10.4,0,20.7,3.9,20.7,17.2c0,7.6-3.5,12.1-8.3,14.5l12.5,17H70.9l-10-14.4h-3.8v14.4H41z
		 M57.1,90h6.2c3.1,0,4.9-1.9,4.9-4.6s-1.8-4.6-4.9-4.6h-6.2V90z"/>
	<path class="st0" d="M128.5,67.8v12.6h-20.8V86H126v11.8h-18.3v5.8H129v12.8H91.7V67.8H128.5z"/>
	<path class="st0" d="M152.7,66.7c6.3,0,13.1,1.5,17.9,4v13.9c-7.6-4.8-20.4-6.4-20.4-2.5c0,5.1,23.6,2.8,23.6,19.7
		c0,20.8-28.9,17.2-39.7,11.2V98.4c9.8,6.4,23.2,7.4,23.2,3.3c0-5-23.6-3.1-23.6-20C133.6,71.5,142.2,66.7,152.7,66.7z"/>
	<path class="st0" d="M214.7,70.7v13.9c-7.6-4.8-20.4-6.4-20.4-2.5c0,5.1,23.6,2.8,23.6,19.7c0,20.8-28.9,17.2-39.7,11.2V98.4
		c9.8,6.4,23.2,7.4,23.2,3.3c0-5-23.6-3.1-23.6-20C177.7,64,202.6,64.2,214.7,70.7z"/>
	<path class="st0" d="M260,67.8v12.6h-20.8V86h18.3v11.8h-18.3v5.8h21.2v12.8h-37.2V67.8H260z"/>
	<path class="st0" d="M282.5,67.8v48.6h-16.1V67.8H282.5z"/>
</g>
<g>
	<polygon class="st0" points="129,48.8 129,19.2 17.5,19.2 17.5,159.4 129,159.4 129,140.2 117.8,140.2 117.8,148.2 28.7,148.2 
		28.7,30.4 117.8,30.4 117.8,48.8 	"/>
</g>
</svg>
